<svg id="Layer_1" data-name="Layer 1" xmlns="http://www.w3.org/2000/svg" width="792.76" height="792.76" viewBox="0 0 792.76 792.76">
  <defs>
    <style>
      .cls-1 {
        fill: #231f20;
      }
    </style>
  </defs>
  <title>Artboard 4</title>
  <polygon class="cls-1" points="792.76 0 177.04 -1.71 791.76 792.55 792.76 0"/>
  <g>
    <polygon class="cls-1" points="792.06 793.62 -248.26 791.95 -247.88 788.18 792.45 789.85 792.06 793.62"/>
    <polygon class="cls-1" points="792.02 793.62 -245.75 767.09 -245.29 763.33 792.49 789.86 792.02 793.62"/>
    <polygon class="cls-1" points="791.98 793.61 -243.25 742.23 -242.7 738.48 792.53 789.86 791.98 793.61"/>
    <polygon class="cls-1" points="791.94 793.6 -240.74 717.36 -240.11 713.63 792.57 789.87 791.94 793.6"/>
    <polygon class="cls-1" points="791.9 793.6 -238.23 692.5 -237.53 688.78 792.61 789.88 791.9 793.6"/>
    <polygon class="cls-1" points="791.86 793.59 -235.72 667.63 -234.94 663.93 792.65 789.88 791.86 793.59"/>
    <polygon class="cls-1" points="791.82 793.58 -233.21 642.77 -232.35 639.08 792.68 789.89 791.82 793.58"/>
    <polygon class="cls-1" points="791.78 793.57 -230.7 617.91 -229.77 614.24 792.72 789.9 791.78 793.57"/>
    <polygon class="cls-1" points="791.75 793.56 -228.19 593.04 -227.18 589.39 792.76 789.91 791.75 793.56"/>
    <polygon class="cls-1" points="791.71 793.55 -225.69 568.17 -224.59 564.54 792.8 789.92 791.71 793.55"/>
    <polygon class="cls-1" points="791.67 793.54 -223.18 543.3 -222.01 539.7 792.84 789.93 791.67 793.54"/>
    <polygon class="cls-1" points="791.63 793.53 -220.66 518.44 -219.43 514.86 792.87 789.95 791.63 793.53"/>
    <polygon class="cls-1" points="791.6 793.51 -218.15 493.57 -216.84 490.01 792.91 789.96 791.6 793.51"/>
    <polygon class="cls-1" points="791.56 793.5 -215.64 468.7 -214.26 465.17 792.95 789.97 791.56 793.5"/>
    <polygon class="cls-1" points="791.53 793.49 -213.13 443.83 -211.68 440.33 792.98 789.99 791.53 793.49"/>
    <polygon class="cls-1" points="791.49 793.47 -210.62 418.96 -209.09 415.49 793.01 790 791.49 793.47"/>
    <polygon class="cls-1" points="791.46 793.46 -208.1 394.09 -206.51 390.64 793.05 790.01 791.46 793.46"/>
    <polygon class="cls-1" points="791.43 793.44 -205.59 369.22 -203.93 365.8 793.08 790.03 791.43 793.44"/>
    <polygon class="cls-1" points="791.4 793.43 -203.07 344.35 -201.35 340.96 793.11 790.05 791.4 793.43"/>
    <polygon class="cls-1" points="791.37 793.41 -200.55 319.48 -198.78 316.12 793.14 790.06 791.37 793.41"/>
    <polygon class="cls-1" points="791.33 793.4 -198.04 294.6 -196.2 291.28 793.18 790.08 791.33 793.4"/>
    <polygon class="cls-1" points="791.3 793.38 -195.52 269.73 -193.62 266.44 793.2 790.09 791.3 793.38"/>
    <polygon class="cls-1" points="791.27 793.36 -193 244.86 -191.04 241.6 793.23 790.11 791.27 793.36"/>
    <polygon class="cls-1" points="791.25 793.35 -190.48 219.98 -188.47 216.76 793.26 790.13 791.25 793.35"/>
    <polygon class="cls-1" points="791.22 793.33 -187.96 195.11 -185.89 191.93 793.29 790.14 791.22 793.33"/>
    <polygon class="cls-1" points="791.19 793.31 -185.44 170.24 -183.32 167.09 793.32 790.16 791.19 793.31"/>
    <polygon class="cls-1" points="791.17 793.29 -182.92 145.36 -180.74 142.25 793.34 790.18 791.17 793.29"/>
    <polygon class="cls-1" points="791.14 793.28 -180.4 120.49 -178.17 117.41 793.37 790.2 791.14 793.28"/>
    <polygon class="cls-1" points="791.12 793.26 -177.87 95.62 -175.6 92.57 793.39 790.21 791.12 793.26"/>
    <polygon class="cls-1" points="791.09 793.24 -175.35 70.74 -173.03 67.73 793.42 790.23 791.09 793.24"/>
    <polygon class="cls-1" points="791.07 793.22 -172.82 45.87 -170.46 42.89 793.44 790.25 791.07 793.22"/>
    <polygon class="cls-1" points="791.05 793.21 -170.3 21 -167.89 18.06 793.46 790.27 791.05 793.21"/>
    <polygon class="cls-1" points="791.03 793.19 -167.77 -3.88 -165.32 -6.78 793.48 790.28 791.03 793.19"/>
    <polygon class="cls-1" points="791.01 793.17 -165.25 -28.75 -162.75 -31.62 793.5 790.3 791.01 793.17"/>
    <polygon class="cls-1" points="790.99 793.15 -162.72 -53.63 -160.18 -56.46 793.52 790.32 790.99 793.15"/>
    <polygon class="cls-1" points="790.96 793.13 -160.19 -78.5 -157.61 -81.3 793.54 790.34 790.96 793.13"/>
    <polygon class="cls-1" points="790.95 793.12 -157.66 -103.37 -155.05 -106.14 793.56 790.35 790.95 793.12"/>
    <polygon class="cls-1" points="790.93 793.1 -155.13 -128.24 -152.48 -130.98 793.58 790.37 790.93 793.1"/>
    <polygon class="cls-1" points="790.91 793.08 -152.61 -153.12 -149.91 -155.81 793.6 790.39 790.91 793.08"/>
    <polygon class="cls-1" points="790.89 793.07 -150.07 -177.99 -147.35 -180.65 793.62 790.41 790.89 793.07"/>
    <polygon class="cls-1" points="790.88 793.05 -147.54 -202.87 -144.78 -205.49 793.63 790.42 790.88 793.05"/>
    <polygon class="cls-1" points="790.86 793.03 -145.01 -227.74 -142.22 -230.33 793.65 790.44 790.86 793.03"/>
    <polygon class="cls-1" points="790.84 793.02 -142.48 -252.61 -139.66 -255.17 793.66 790.46 790.84 793.02"/>
    <polygon class="cls-1" points="790.83 793 -139.95 -277.48 -137.1 -280.01 793.68 790.47 790.83 793"/>
    <polygon class="cls-1" points="790.81 792.98 -137.42 -302.35 -134.53 -304.85 793.7 790.49 790.81 792.98"/>
    <polygon class="cls-1" points="790.8 792.97 -134.88 -327.23 -131.97 -329.69 793.71 790.5 790.8 792.97"/>
    <polygon class="cls-1" points="790.79 792.95 -132.35 -352.1 -129.41 -354.53 793.72 790.52 790.79 792.95"/>
    <polygon class="cls-1" points="790.77 792.94 -129.81 -376.97 -126.85 -379.37 793.74 790.53 790.77 792.94"/>
  </g>
</svg>
