<svg id="Layer_1" data-name="Layer 1" xmlns="http://www.w3.org/2000/svg" viewBox="0 0 861.24 259.79"><title>sa</title><path d="M223.61,97v4.58l-2.76-3.66a36.64,36.64,0,0,0-3.26-3.07A27.87,27.87,0,0,0,208.05,90a28.31,28.31,0,0,0-7.68-1.08h0a28,28,0,0,0-23.77,13.21,28.11,28.11,0,0,0,21.14,42.79v-4.73a23.52,23.52,0,0,1-13.81-6.67,23.43,23.43,0,0,1,0-33,23.6,23.6,0,0,1,15.76-6.84h.72a23.39,23.39,0,0,1,16.42,6.83,22.57,22.57,0,0,1,6.47,12.87,51.33,51.33,0,0,1,.33,7c0,8.61,0,17.22,0,25.25v.22h4.76V89.09h-4.76Z"/><path d="M253.58,130.61a28.18,28.18,0,0,0,24,15.2v0h1a27.8,27.8,0,0,0,19.13-7.58l-3.33-3.33a23.31,23.31,0,0,1-31.91-34h0A23.27,23.27,0,0,1,293,99.62l3.35-3.35a28,28,0,0,0-17.84-6.45h-.91a28.12,28.12,0,0,0-11.11,2.7,28.44,28.44,0,0,0-9.63,7.53,27.87,27.87,0,0,0-6.39,16.8v1A28,28,0,0,0,253.58,130.61Z"/><path d="M342.61,139a23.49,23.49,0,0,1-17.91-25.06,23.15,23.15,0,0,1,23.11-20.84A23.5,23.5,0,0,1,365,100.46l0,0,.22.25a24,24,0,0,1,4.71,8.09l.7,2H350.51v4.57h25.35a27.19,27.19,0,0,0-2.06-9.61,28.14,28.14,0,0,0-6.13-9.27,27.26,27.26,0,0,0-9.42-6.2,28.62,28.62,0,0,0-21.09.1,27.36,27.36,0,0,0-8.52,5.44l-.61.61a27.81,27.81,0,0,0-4.48,33.59A28,28,0,0,0,347,144.27V139.5l-.24,0A27.77,27.77,0,0,1,342.61,139Z"/><path d="M348.39,145.81h0Z"/><path d="M146.46,134.32a28.65,28.65,0,0,0,7.72-25.46,28,28,0,0,0-16.59-20.18,28.69,28.69,0,0,0-10.72-2.14h0A25.86,25.86,0,0,0,115.45,89,39,39,0,0,0,106,95.74l-2.49,2.5.09-3.56v0l-.22-8.49H98.64V205.89h4.81l-.31-28.05s-.58-66.85.33-69.79a23.13,23.13,0,0,1,6.13-9.92,25.12,25.12,0,0,1,34.37,0,22.63,22.63,0,0,1-.09,32.88,24.78,24.78,0,0,1-14.49,6.65l0,4.72a27.93,27.93,0,0,0,16.69-7.62Z"/><path d="M76.14,63.62h4.73a27.64,27.64,0,0,0-8-17.17l0-.06-.07-.05a28.58,28.58,0,0,0-16.66-8.06,27,27,0,0,0-3.3-.2A27.34,27.34,0,0,0,37.73,42.6a29,29,0,0,0-8.32,8.47A26.93,26.93,0,0,0,25.11,66a29.35,29.35,0,0,0,2.12,10.57,28.14,28.14,0,0,0,6.14,9.27l1,1a34.08,34.08,0,0,0,5.84,4.08v-5.4c-.76-.7-2.49-2-3.48-3a23.33,23.33,0,0,1,0-33,23.42,23.42,0,0,1,5-3.83h0A23.43,23.43,0,0,1,53,42.84a23,23,0,0,1,8.78,1.75,23.25,23.25,0,0,1,14.37,19Z"/><path d="M59.84,145a28,28,0,0,0,12.48-7h0l.39-.39a27.37,27.37,0,0,0,7-12A28.63,28.63,0,0,0,80,111.77a27.68,27.68,0,0,0-7.58-13.6,28.18,28.18,0,0,0-6.94-5.06q0,1,0,1.94,0,1.76,0,3.52a25.4,25.4,0,0,1,3.56,2.91,23.4,23.4,0,0,1,5.14,7.7,23.24,23.24,0,0,1-5.09,25.26,23.44,23.44,0,0,1-5,3.83h0a23.44,23.44,0,0,1-11.19,2.87,23.19,23.19,0,0,1-16.48-6.81,23.59,23.59,0,0,1-6.67-13.84H25a28,28,0,0,0,8.05,17.15l1.12,1.11A28.51,28.51,0,0,0,53,145.81,27.92,27.92,0,0,0,59.84,145Z"/><path d="M582.79,139a23.49,23.49,0,0,1-17.91-25.06A23.15,23.15,0,0,1,588,93.08a23.5,23.5,0,0,1,17.17,7.38l0,0,.22.25a24,24,0,0,1,4.71,8.09l.7,2H590.69v4.57H616a27.19,27.19,0,0,0-2.06-9.61,28.14,28.14,0,0,0-6.13-9.27,27.26,27.26,0,0,0-9.42-6.2,28.62,28.62,0,0,0-21.09.1,27.36,27.36,0,0,0-8.52,5.44l-.61.61a27.81,27.81,0,0,0-4.48,33.59,28,28,0,0,0,23.4,14.21V139.5A41.7,41.7,0,0,1,582.79,139Z"/><path d="M714.95,130.61a28.18,28.18,0,0,0,24,15.2v0h1a27.8,27.8,0,0,0,19.13-7.58l-3.33-3.33a23.31,23.31,0,0,1-31.91-34h0a23.27,23.27,0,0,1,30.52-1.28l3.35-3.35a28,28,0,0,0-17.84-6.45H739a28.12,28.12,0,0,0-11.11,2.7,28.44,28.44,0,0,0-9.63,7.53,27.87,27.87,0,0,0-6.39,16.8v1A28,28,0,0,0,714.95,130.61Z"/><rect x="633.18" y="88.84" width="5" height="57"/><path d="M690,116.14a29.79,29.79,0,0,0-4.16-14.71,28.4,28.4,0,0,0-23.77-13.59h0l-.92.36V93h1.15a23.48,23.48,0,0,1,22.88,23.74c0,.11.08,29.12.08,29.12h4.76S690.05,116.45,690,116.14Z"/><path d="M537.7,88.84l-.08,11.47-2.53-2.8A38,38,0,0,0,525.62,91c-3-1.54-7.09-2.18-11.41-2.18h0a28.36,28.36,0,0,0-10.72,1.73,27.34,27.34,0,0,0-16.59,19.87,28.55,28.55,0,0,0,7.72,25.41l.41.39a27.25,27.25,0,0,0,16.44,7.61l0-4.73a24.44,24.44,0,0,1-14.37-6.65,22.67,22.67,0,0,1,0-32.88,25.15,25.15,0,0,1,34.39,0,23.19,23.19,0,0,1,2.13,2.32,24.82,24.82,0,0,1,4,8c.6,1.94.42,35,.23,64h0A22.09,22.09,0,0,1,531,189.06a23,23,0,0,1-16.48,6.66,23.32,23.32,0,0,1-16.5-6.93,23.94,23.94,0,0,1-6.84-17.12h0c0-.69,0-.82.11-1.82h-4.63a27,27,0,0,0,0,5.33,27.56,27.56,0,0,0,7.35,16.3l.72.71a28.1,28.1,0,0,0,38.93.58v0l.44-.71a27.71,27.71,0,0,0,3.1-4.06h0a26.46,26.46,0,0,0,5-14.82V88.84Z"/><path d="M837.23,171.76c0-6.1-.14-85.92-.14-85.92h-5l.39,85.92A22.17,22.17,0,0,1,825.71,187a23,23,0,0,1-16.48,6.66,24.33,24.33,0,0,1-16.93-6.93,23.83,23.83,0,0,1-6.72-17.12l0-1.64h-4.37a42.85,42.85,0,0,0,.12,5.17,27.46,27.46,0,0,0,7.36,16.27l.72.7a28.24,28.24,0,0,0,34.91,3.69,37.67,37.67,0,0,0,8.09-7.62A23.48,23.48,0,0,0,837.23,171.76Z"/><path d="M785.4,129.44a28.54,28.54,0,0,0,23.42,13.7v-5.57h-.51a23.36,23.36,0,0,1-15.66-6.84,22.76,22.76,0,0,1-6.74-16.33c0-.11.08-28.55.08-28.55h-4.76s0,28.95,0,29.26A28.47,28.47,0,0,0,785.4,129.44Z"/><path d="M402.8,118.17c0,.1,0,.19,0,.29l.06-.29Z"/><path d="M397.69,143.84H392.2L419.1,43.76l1.28-5c.35-1.21,3.34-2.19,5.08-2.52a27.49,27.49,0,0,1,5.13-.5,27.22,27.22,0,0,1,3.3.19c.52.06,1,.14,1.55.23,1.73.31,4.55,1.11,5.06,2.38l1.24,4.84,27,100.44h-5.5L436.55,41.36c-.31-.68-3.82-.81-5.78-.81-2.18,0-6.28.3-6.43,1Z"/><rect x="430.58" y="108.19" width="21.7" height="4.76"/></svg>